# xmcd CD database file
#
# Track frame offsets:
#	150
#	11948
#	22900
#	36393
#	53185
#	85032
#	110538
#	132181
#	167635
#	184681
#	206424
#	255288
#	267394
#	295295
#	316107
#
# Disc length: 4354 seconds
#
# Revision: 5
# Processed by: cddbd v1.5.2PL0 Copyright (c) Steve Scherf et al.
# Submitted via: CDex 1.51
#
DISCID=c911000f
DTITLE=Malicorne - Légende  { compilation de la deuxième époque  1978-1981 }
DYEAR=2003
DGENRE=Folk
TTITLE0=Le prince d'orange  [Malicorne en public]
TTITLE1=Dance bulgare  [le bestiaire]
TTITLE2=Compagnons qui roulez en provence  [ L'extraordinaire tour de France ... ]
TTITLE3=La mule  [le bestiaire]
TTITLE4=Pierre de Grenoble - Schiarazzula marazzula  [Malicorne en public]
TTITLE5=Balançoire en feu  [balançoire en feu]
TTITLE6=La dance des damnés  [ L'extraordinaire tour de France ... ]
TTITLE7=Jean des loups  [le bestiaire]
TTITLE8=La conduite  [ L'extraordinaire tour de France ... ]
TTITLE9=Chantier d'été  [balançoire en feu]
TTITLE10=L'écolier assassin  [Malicorne en public]
TTITLE11=Si l'amour prenait racine  [ L'extraordinaire tour de France ... ]
TTITLE12=Beau charpentier  [balançoire en feu]
TTITLE13=Le mariage anglais  [Malicorne en public]
TTITLE14=Le départ des compagnons  [ L'extraordinaire tour de France ... ]
EXTD=YEAR: 2003
EXTT0=
EXTT1=
EXTT2=
EXTT3=
EXTT4=
EXTT5=
EXTT6=
EXTT7=
EXTT8=
EXTT9=
EXTT10=
EXTT11=
EXTT12=
EXTT13=
EXTT14=
PLAYORDER=
